<svg width="256" height="55" viewBox="0 0 256 55" fill="none" xmlns="http://www.w3.org/2000/svg">
<path d="M18.302 17.3528V38.3603L1.60604 54.6189C1.01337 55.196 0 54.7872 0 53.971V39.2765C0 38.7705 0.421208 38.3603 0.940793 38.3603H18.302L0.244663 19.0176C0.087232 18.849 0 18.6293 0 18.4014V1.36258C0 0.546378 1.01337 0.137624 1.60604 0.714764L18.0264 16.705C18.2029 16.8768 18.302 17.1098 18.302 17.3528Z" fill="#1529C1"/>
<path d="M21.9196 37.9808V16.9733L38.6156 0.714751C39.2082 0.137609 40.2216 0.546364 40.2216 1.36256V16.0571C40.2216 16.5631 39.8004 16.9733 39.2808 16.9733H21.9196L39.9769 36.316C40.1344 36.4846 40.2216 36.7043 40.2216 36.9322V53.971C40.2216 54.7872 39.2082 55.196 38.6156 54.6188L22.1952 38.6286C22.0187 38.4568 21.9196 38.2238 21.9196 37.9808Z" fill="#1529C1"/>
<path d="M64.8566 41.4308C73.7637 41.4308 79.3735 35.9495 79.3735 27.0852C79.3735 18.2209 73.7637 12.7396 64.8566 12.7396H51.7957V41.4308H64.8566ZM64.8566 16.8934C71.4941 16.8934 74.4917 19.7197 74.4917 27.0852C74.4917 34.4507 71.4941 37.277 64.8566 37.277H56.3777V16.8934H64.8566Z" fill="white"/>
<path d="M92.6686 41.8591C99.0064 41.8591 103.46 38.733 103.46 34.1938V33.8084H98.8351V34.151C98.8351 36.6775 96.9937 38.1335 92.5402 38.1335C87.6155 38.1335 85.6029 35.9495 85.4316 31.8386H103.503C103.631 31.1962 103.674 30.5967 103.674 29.8259C103.674 23.3597 99.1777 19.7197 92.583 19.7197C85.6457 19.7197 81.1065 24.1733 81.1065 30.8108C81.1065 37.9194 85.6885 41.8591 92.6686 41.8591ZM92.4973 23.3597C97.0365 23.3597 99.3062 25.2439 99.3062 29.1835V29.2692H85.4744C85.7314 25.458 87.7868 23.3597 92.4973 23.3597Z" fill="white"/>
<path d="M119.942 41.4308L129.963 20.148H124.952L117.373 36.9345H117.03L109.45 20.148H104.355L114.289 41.4308H119.942Z" fill="white"/>
<path d="M145.439 41.4308V37.277H141.585C138.93 37.277 137.73 36.5919 137.73 33.9797V24.002H145.439V20.148H137.73V15.4803H133.148V20.148H129.551V24.002H133.148V34.2366C133.148 39.4182 135.975 41.4308 140.557 41.4308H145.439Z" fill="white"/>
<path d="M152.1 41.4308V29.4833C152.1 25.6721 153.599 23.6594 157.239 23.6594C160.407 23.6594 161.692 25.0726 161.692 28.113V29.9972H166.274V27.2137C166.274 23.1884 164.176 19.7197 159.337 19.7197C154.969 19.7197 152.657 22.4604 152.014 25.8862H151.714V20.148H147.475V41.4308H152.1Z" fill="white"/>
<path d="M174.575 41.8591C179.414 41.8591 182.797 39.7179 183.91 36.1208H184.21V41.4308H188.449V28.4984C188.449 23.4025 185.409 19.7197 178.643 19.7197C171.877 19.7197 167.852 23.3597 167.852 28.1986V28.3699H172.434V28.1986C172.434 25.0726 174.361 23.7879 178.3 23.7879C182.368 23.7879 183.91 25.0297 183.91 28.5412V29.7831L174.232 30.8108C170.036 31.2819 167.381 32.9948 167.381 36.2921C167.381 39.8036 170.164 41.8591 174.575 41.8591ZM172.005 35.9924C172.005 34.3223 173.162 33.7656 175.56 33.4658L183.91 32.5237C183.91 36.7203 180.656 38.5189 175.817 38.5189C173.162 38.5189 172.005 37.7053 172.005 35.9924Z" fill="white"/>
<path d="M196.346 41.4308V30.8965C196.346 26.2716 198.444 23.8735 203.112 23.8735C207.523 23.8735 209.321 25.8862 209.321 29.8687V41.4308H213.946V28.6269C213.946 23.7022 211.034 19.7197 205.125 19.7197C199.729 19.7197 196.903 23.1455 196.26 26.7427H195.961V20.148H191.721V41.4308H196.346Z" fill="white"/>
<path d="M227.916 41.8591C234.254 41.8591 238.708 38.733 238.708 34.1938V33.8084H234.083V34.151C234.083 36.6775 232.242 38.1335 227.788 38.1335C222.863 38.1335 220.851 35.9495 220.679 31.8386H238.751C238.879 31.1962 238.922 30.5967 238.922 29.8259C238.922 23.3597 234.426 19.7197 227.831 19.7197C220.894 19.7197 216.354 24.1733 216.354 30.8108C216.354 37.9194 220.936 41.8591 227.916 41.8591ZM227.745 23.3597C232.284 23.3597 234.554 25.2439 234.554 29.1835V29.2692H220.722C220.979 25.458 223.035 23.3597 227.745 23.3597Z" fill="white"/>
<path d="M255.49 41.4308V37.277H251.636C248.981 37.277 247.781 36.5919 247.781 33.9797V24.002H255.49V20.148H247.781V15.4803H243.199V20.148H239.602V24.002H243.199V34.2366C243.199 39.4182 246.026 41.4308 250.608 41.4308H255.49Z" fill="white"/>
</svg>
