<svg width="1018" height="141" viewBox="0 0 1018 141" fill="none" xmlns="http://www.w3.org/2000/svg">
<g clip-path="url(#clip0_13_84)">
<path d="M215.583 107.387H203.959V75.3242H180.375V107.387H168.751V34.1084H180.375V64.8237H203.959V34.1084H215.583V107.387ZM228.554 92.3384C228.554 89.2687 229.377 86.5921 231.024 84.3086C232.672 81.9876 234.824 80.0597 237.482 78.5249C240.177 76.9901 243.247 75.8483 246.691 75.0996C250.172 74.3135 253.71 73.9204 257.304 73.9204C259.288 73.9204 260.991 73.9578 262.414 74.0327C263.836 74.1076 265.277 74.2199 266.737 74.3696V72.292C266.737 69.5592 265.67 67.519 263.537 66.1714C261.44 64.8237 258.67 64.1499 255.226 64.1499C252.082 64.1499 248.881 64.5991 245.624 65.4976C242.367 66.3586 239.279 67.6313 236.359 69.3159L231.642 60.2192C235.086 58.2352 238.773 56.6816 242.704 55.5586C246.672 54.3981 250.846 53.8179 255.226 53.8179C258.071 53.8179 260.86 54.1361 263.593 54.7725C266.363 55.4089 268.834 56.457 271.005 57.917C273.214 59.377 274.973 61.2861 276.283 63.6445C277.593 65.9655 278.249 68.848 278.249 72.292V107.387H266.737V99.6943C264.903 102.539 262.189 104.748 258.595 106.32C255.039 107.893 251.202 108.679 247.084 108.679C244.538 108.679 242.124 108.323 239.84 107.612C237.594 106.938 235.648 105.909 234 104.523C232.353 103.138 231.024 101.435 230.014 99.4136C229.04 97.3547 228.554 94.9963 228.554 92.3384ZM250.06 98.2905C252.344 98.2905 254.477 98.0098 256.461 97.4482C258.483 96.8493 260.261 96.0444 261.796 95.0337C263.331 93.9855 264.529 92.7314 265.39 91.2715C266.288 89.8115 266.737 88.2018 266.737 86.4424V84.4771C264.903 84.1776 263.181 84.0091 261.571 83.9717C259.962 83.9342 258.539 83.9155 257.304 83.9155C251.614 83.9155 247.309 84.6642 244.389 86.1616C241.506 87.659 240.065 89.512 240.065 91.7207C240.065 96.1006 243.397 98.2905 250.06 98.2905ZM341.925 99.9189C338.556 103.288 335 105.59 331.256 106.826C327.55 108.061 323.526 108.679 319.184 108.679C314.804 108.679 310.817 108.024 307.223 106.713C303.667 105.403 300.635 103.569 298.126 101.21C295.656 98.8146 293.747 95.9321 292.399 92.563C291.089 89.1938 290.434 85.4316 290.434 81.2764C290.434 77.3083 291.089 73.6396 292.399 70.2705C293.747 66.8639 295.543 63.9627 297.79 61.5669C300.073 59.1336 302.75 57.2432 305.819 55.8955C308.889 54.5104 312.146 53.8179 315.59 53.8179C319.184 53.8179 322.309 54.5666 324.967 56.064C327.625 57.5614 329.553 59.7513 330.751 62.6338V55.0532H341.139V79.4233H330.751C330.751 74.8188 329.478 71.1502 326.933 68.4175C324.424 65.6473 321.149 64.2622 317.106 64.2622C315.496 64.2622 313.793 64.5991 311.996 65.2729C310.237 65.9093 308.608 66.9201 307.111 68.3052C305.651 69.6903 304.434 71.4497 303.461 73.5835C302.488 75.7173 302.001 78.2816 302.001 81.2764C302.001 84.1963 302.469 86.7231 303.405 88.8569C304.341 90.9533 305.557 92.694 307.055 94.0791C308.59 95.4268 310.386 96.4562 312.445 97.1675C314.542 97.8413 316.694 98.1782 318.903 98.1782C322.684 98.1782 325.959 97.598 328.729 96.4375C331.537 95.2396 333.952 93.6673 335.973 91.7207L341.925 99.9189ZM406.557 107.387H391.508L373.988 86.2178L368.71 91.6084V107.387H357.086V34.1084H368.71V77.2334L389.655 55.0532H405.602L381.457 79.0864L406.557 107.387ZM470.009 90.71C469.41 96.2129 467.239 100.593 463.495 103.85C459.789 107.069 455.147 108.679 449.569 108.679C446.5 108.679 443.692 108.173 441.146 107.163C438.601 106.152 436.43 104.748 434.633 102.951C432.836 101.154 431.432 99.0018 430.421 96.4937C429.448 93.9481 428.961 91.1779 428.961 88.1831V65.5537H417.113V55.0532H428.961V34.1084H440.585V55.0532H462.541V65.5537H440.585V88.1831C440.585 91.5522 441.409 94.0604 443.056 95.7075C444.703 97.3547 446.874 98.1782 449.569 98.1782C452.864 98.1782 455.316 97.2236 456.925 95.3145C458.535 93.4053 459.49 91.103 459.789 88.4077L470.009 90.71ZM529.474 107.387H517.851V75.0996C517.851 71.0192 517.083 68.1929 515.548 66.6206C514.014 65.0483 511.786 64.2622 508.866 64.2622C504.561 64.2622 501.042 66.0029 498.31 69.4844C495.614 72.9658 494.267 77.7762 494.267 83.9155V107.387H482.643V34.1084H494.267V68.1929C495.427 63.6632 497.58 60.1444 500.724 57.6362C503.869 55.0907 507.743 53.8179 512.348 53.8179C517.701 53.8179 521.894 55.5586 524.926 59.04C527.958 62.5215 529.474 67.8747 529.474 75.0996V107.387ZM553.339 85.6562C553.9 89.25 555.604 92.2448 558.449 94.6406C561.331 96.999 565.187 98.1782 570.016 98.1782C573.797 98.1782 577.073 97.598 579.843 96.4375C582.65 95.2396 585.065 93.6673 587.086 91.7207L593.039 99.9189C589.669 103.288 586.094 105.59 582.313 106.826C578.57 108.061 574.471 108.679 570.016 108.679C565.973 108.679 562.211 108.005 558.729 106.657C555.248 105.31 552.235 103.438 549.689 101.042C547.143 98.6087 545.141 95.7262 543.681 92.3945C542.258 89.0628 541.547 85.3568 541.547 81.2764C541.547 77.3083 542.202 73.6584 543.512 70.3267C544.86 66.9575 546.732 64.0563 549.127 61.623C551.561 59.1523 554.462 57.2432 557.831 55.8955C561.2 54.5104 564.925 53.8179 569.005 53.8179C573.236 53.8179 577.073 54.5479 580.517 56.0078C583.961 57.4303 586.899 59.508 589.333 62.2407C591.803 64.9735 593.731 68.3239 595.116 72.292C596.501 76.2227 597.194 80.6774 597.194 85.6562H553.339ZM584.054 75.4365C583.455 72.0674 581.715 69.3721 578.832 67.3506C575.95 65.2917 572.674 64.2622 569.005 64.2622C565.337 64.2622 562.042 65.2917 559.123 67.3506C556.203 69.3721 554.443 72.0674 553.844 75.4365H584.054ZM659.411 55.0532L651.549 107.387H637.174L631.671 75.8857L626.056 107.387H611.681L603.82 55.0532H615.219L619.823 90.0361L625.438 55.0532H637.736L643.407 90.0361L648.012 55.0532H659.411ZM701.469 48.2588H687.318V34.1084H701.469V48.2588ZM712.138 107.387H676.986V96.9429H688.554V65.5537H676.986V55.0532H700.177V96.9429H712.138V107.387ZM780.587 107.387H768.964V75.0996C768.964 71.0192 768.196 68.1929 766.662 66.6206C765.127 65.0483 762.899 64.2622 759.979 64.2622C755.674 64.2622 752.156 66.0029 749.423 69.4844C746.728 72.9658 745.38 77.7762 745.38 83.9155V107.387H733.756V55.0532H745.38V68.1929C746.54 63.6632 748.693 60.1444 751.837 57.6362C754.982 55.0907 758.856 53.8179 763.461 53.8179C768.814 53.8179 773.007 55.5586 776.039 59.04C779.071 62.5215 780.587 67.8747 780.587 75.0996V107.387ZM846.679 90.71C846.08 96.2129 843.909 100.593 840.165 103.85C836.459 107.069 831.817 108.679 826.239 108.679C823.17 108.679 820.362 108.173 817.816 107.163C815.271 106.152 813.1 104.748 811.303 102.951C809.506 101.154 808.102 99.0018 807.091 96.4937C806.118 93.9481 805.631 91.1779 805.631 88.1831V65.5537H793.783V55.0532H805.631V34.1084H817.255V55.0532H839.21V65.5537H817.255V88.1831C817.255 91.5522 818.078 94.0604 819.726 95.7075C821.373 97.3547 823.544 98.1782 826.239 98.1782C829.534 98.1782 831.986 97.2236 833.595 95.3145C835.205 93.4053 836.16 91.103 836.459 88.4077L846.679 90.71ZM867.23 85.6562C867.792 89.25 869.495 92.2448 872.34 94.6406C875.223 96.999 879.079 98.1782 883.908 98.1782C887.689 98.1782 890.964 97.598 893.734 96.4375C896.542 95.2396 898.957 93.6673 900.978 91.7207L906.93 99.9189C903.561 103.288 899.986 105.59 896.205 106.826C892.462 108.061 888.362 108.679 883.908 108.679C879.865 108.679 876.103 108.005 872.621 106.657C869.14 105.31 866.126 103.438 863.581 101.042C861.035 98.6087 859.032 95.7262 857.572 92.3945C856.15 89.0628 855.438 85.3568 855.438 81.2764C855.438 77.3083 856.094 73.6584 857.404 70.3267C858.751 66.9575 860.623 64.0563 863.019 61.623C865.452 59.1523 868.354 57.2432 871.723 55.8955C875.092 54.5104 878.817 53.8179 882.897 53.8179C887.127 53.8179 890.964 54.5479 894.408 56.0078C897.852 57.4303 900.791 59.508 903.224 62.2407C905.695 64.9735 907.623 68.3239 909.008 72.292C910.393 76.2227 911.085 80.6774 911.085 85.6562H867.23ZM897.946 75.4365C897.347 72.0674 895.606 69.3721 892.724 67.3506C889.841 65.2917 886.566 64.2622 882.897 64.2622C879.228 64.2622 875.934 65.2917 873.014 67.3506C870.094 69.3721 868.335 72.0674 867.736 75.4365H897.946ZM970.382 67.4629C968.997 66.7891 967.575 66.2837 966.115 65.9468C964.692 65.5724 963.045 65.3853 961.173 65.3853C958.59 65.3853 956.157 65.7783 953.874 66.5645C951.627 67.3132 949.681 68.4549 948.034 69.9897C946.387 71.5246 945.095 73.4525 944.159 75.7734C943.261 78.057 942.812 80.771 942.812 83.9155V96.9429H954.547V107.387H919.34V96.9429H931.188V65.5537H919.34V55.0532H942.812V68.1929C944.721 62.952 947.528 59.2459 951.234 57.0747C954.978 54.9035 959.414 53.8179 964.542 53.8179C966.152 53.8179 967.837 53.9863 969.596 54.3232C971.356 54.6602 973.078 55.2591 974.762 56.1201L970.382 67.4629Z" fill="white"/>
<mask id="mask0_13_84" style="mask-type:luminance" maskUnits="userSpaceOnUse" x="0" y="1" width="140" height="140">
<path d="M120 1H20C8.9543 1 0 9.95431 0 21V121C0 132.046 8.9543 141 20 141H120C131.046 141 140 132.046 140 121V21C140 9.95431 131.046 1 120 1Z" fill="white"/>
</mask>
<g mask="url(#mask0_13_84)">
<path d="M120 1H20C8.9543 1 0 9.95431 0 21V121C0 132.046 8.9543 141 20 141H120C131.046 141 140 132.046 140 121V21C140 9.95431 131.046 1 120 1Z" fill="#1529C1"/>
<path d="M91.9056 112.911V79.0889L121.132 98.6516V131.001L91.9056 112.911Z" fill="#020412" fill-opacity="0.34"/>
<path d="M-25.0602 111.204V77.3812L4.1661 96.944V129.293L-25.0602 111.204Z" fill="#020412" fill-opacity="0.34"/>
<path d="M33.438 111.194V77.3712L62.6642 96.934V129.283L33.438 111.194Z" fill="#020412" fill-opacity="0.34"/>
<path d="M150.358 16.9831V-16.8392L121.132 2.72346V35.0727L150.358 16.9831Z" fill="#020412" fill-opacity="0.34"/>
<path d="M150.358 146.115V112.293L121.132 131.856V164.205L150.358 146.115Z" fill="#020412" fill-opacity="0.34"/>
<path d="M33.3928 15.2754V-18.5469L4.1665 1.01588V33.3651L33.3928 15.2754Z" fill="#020412" fill-opacity="0.34"/>
<path d="M33.3928 144.408V110.585L4.1665 130.148V162.497L33.3928 144.408Z" fill="#020412" fill-opacity="0.34"/>
<path d="M91.8908 15.2654V-18.5569L62.6646 1.00587V33.3551L91.8908 15.2654Z" fill="#020412" fill-opacity="0.34"/>
<path d="M91.8908 144.398V110.575L62.6646 130.138V162.487L91.8908 144.398Z" fill="#020412" fill-opacity="0.34"/>
<path d="M150.358 80.7389V46.9166L121.132 66.4794V98.8286L150.358 80.7389Z" fill="#020412" fill-opacity="0.34"/>
<path d="M33.3928 79.0311V45.2087L4.1665 64.7715V97.1207L33.3928 79.0311Z" fill="#020412" fill-opacity="0.34"/>
<path d="M91.8908 79.0213V45.199L62.6646 64.7617V97.1109L91.8908 79.0213Z" fill="#020412" fill-opacity="0.34"/>
<path d="M91.9056 48.5665V14.7441L121.132 34.3069V66.6561L91.9056 48.5665Z" fill="#020412" fill-opacity="0.34"/>
<path d="M-25.0602 46.8588V13.0365L4.1661 32.5992V64.9485L-25.0602 46.8588Z" fill="#020412" fill-opacity="0.34"/>
<path d="M33.438 46.8486V13.0262L62.6642 32.589V64.9382L33.438 46.8486Z" fill="#020412" fill-opacity="0.34"/>
<path d="M105.087 29C105.916 29 106.587 29.6716 106.587 30.5V51.4989C106.587 52.0952 106.234 52.6348 105.688 52.8735L39.1005 81.9638C38.1096 82.3967 37 81.6706 37 80.5893V30.5C37 29.6716 37.6716 29 38.5 29H45.959C46.7875 29 47.459 29.6716 47.459 30.5V64.6049C47.459 65.6862 48.5683 66.4123 49.5592 65.9796L95.2286 46.0402C95.7751 45.8015 96.1284 45.2618 96.1284 44.6655V30.5C96.1284 29.6716 96.7999 29 97.6284 29H105.087Z" fill="white"/>
<path d="M104.487 60.5778C105.478 60.1451 106.587 60.8712 106.587 61.9524V114.5C106.587 115.329 105.916 116 105.087 116H97.6284C96.7999 116 96.1284 115.329 96.1284 114.5V77.9373C96.1284 76.8561 95.0191 76.13 94.0282 76.5626L48.3588 96.5021C47.8123 96.7407 47.459 97.2804 47.459 97.8767V114.5C47.459 115.329 46.7875 116 45.959 116H38.5C37.6716 116 37 115.329 37 114.5V91.0261C37 90.4297 37.3533 89.89 37.8998 89.6514L104.487 60.5778Z" fill="white"/>
</g>
<path d="M120 5.55664H19.9999C11.4708 5.55664 4.55664 12.4708 4.55664 20.9999V121C4.55664 129.529 11.4708 136.444 19.9999 136.444H120C128.529 136.444 135.444 129.529 135.444 121V20.9999C135.444 12.4708 128.529 5.55664 120 5.55664Z" stroke="white" stroke-width="5"/>
</g>
<defs>
<clipPath id="clip0_13_84">
<rect width="1018" height="141" fill="white"/>
</clipPath>
</defs>
</svg>
